<svg width="20" height="20" viewBox="0 0 20 20" fill="none" xmlns="http://www.w3.org/2000/svg">
<path fill-rule="evenodd" clip-rule="evenodd" d="M11.2796 12.64V13.6702C12.0297 13.9354 12.6243 14.5299 12.8894 15.28H17.4396V17.04H12.8894C12.527 18.0654 11.5491 18.8 10.3996 18.8C9.25014 18.8 8.27225 18.0654 7.90983 17.04H3.35961V15.28H7.90983C8.17496 14.5299 8.76949 13.9354 9.51961 13.6702V12.64H6.20667C3.67315 12.64 1.59961 10.6817 1.59961 8.24001C1.59961 6.17738 3.0885 4.43302 5.11737 3.96378C6.15689 2.2743 8.17367 1.20001 10.3996 1.20001C13.0226 1.20001 15.3217 2.6906 16.1136 4.84974C17.8947 5.29678 19.1996 6.84568 19.1996 8.68001C19.1996 10.8787 17.3347 12.64 15.0584 12.64H11.2796ZM10.3996 17.04C10.8856 17.04 11.2796 16.646 11.2796 16.16C11.2796 15.674 10.8856 15.28 10.3996 15.28C9.9136 15.28 9.51961 15.674 9.51961 16.16C9.51961 16.646 9.9136 17.04 10.3996 17.04ZM17.4396 8.68001C17.4396 7.56964 16.5369 6.62208 15.3335 6.49449L14.71 6.42837L14.5689 5.81742C14.1936 4.19254 12.4644 2.96001 10.3996 2.96001C8.65152 2.96001 7.11805 3.84647 6.47207 5.14604L6.26372 5.56522L5.79967 5.62672C4.39874 5.81238 3.35961 6.93216 3.35961 8.24001C3.35961 9.68644 4.62339 10.88 6.20667 10.88H15.0584C16.3844 10.88 17.4396 9.88344 17.4396 8.68001Z" fill="#D7DEED"/>
</svg>
