<svg width="26" height="25" viewBox="0 0 26 26" fill="none" xmlns="http://www.w3.org/2000/svg">
<path d="M25.25 12.5C25.25 5.5957 19.6543 0 12.75 0C5.8457 0 0.25 5.5957 0.25 12.5C0.25 19.4043 5.8457 25 12.75 25C12.8232 25 12.8965 25 12.9697 24.9951V15.2686H10.2842V12.1387H12.9697V9.83398C12.9697 7.16309 14.6006 5.70801 16.9834 5.70801C18.126 5.70801 19.1074 5.79102 19.3906 5.83008V8.62305H17.75C16.4561 8.62305 16.2021 9.23828 16.2021 10.1416V12.1338H19.3027L18.8975 15.2637H16.2021V24.5166C21.4268 23.0176 25.25 18.208 25.25 12.5Z" fill="#87AB49"/>
</svg>
