<svg width="18" height="18" viewBox="0 0 31 31" fill="#3B577F" xmlns="http://www.w3.org/2000/svg">
  <path fill-rule="evenodd" clip-rule="evenodd" d="M3.57635 19.2546C3.75825 19.0299 4.10674 19.0639 4.25074 19.3147C4.3431 19.4755 4.31841 19.6774 4.19545 19.8162C3.47861 20.6257 3.16943 21.2555 3.37554 21.6144C4.03774 22.7676 9.76838 20.6875 16.1753 16.9684C16.3964 16.8401 16.6155 16.7114 16.8323 16.5827C16.9075 16.538 16.9507 16.4553 16.9507 16.3679V16.3679C16.9507 14.8873 18.151 13.687 19.6316 13.687V13.687C20.4255 13.687 21.2852 13.7105 21.9257 13.2415C25.1192 10.9024 27.0158 8.91054 26.577 8.14645C26.3802 7.80381 25.736 7.74661 24.7595 7.93304C24.5836 7.96664 24.4037 7.88861 24.3145 7.73327C24.1743 7.48924 24.3174 7.17974 24.5959 7.139C26.514 6.85833 27.8746 7.09271 28.3515 7.92322C29.2447 9.47867 26.7869 12.6876 22.5083 15.9505C22.3798 16.0484 22.3125 16.2063 22.3125 16.3679V16.3679C22.3125 17.8485 21.1123 19.0488 19.6316 19.0488C19.5573 19.0488 19.4837 19.0458 19.4108 19.0399C18.751 18.9861 18.0486 18.9585 17.4761 19.2908V19.2908C10.2675 23.4752 3.44909 25.1701 2.24681 23.0764C1.7534 22.2172 2.28256 20.8534 3.57635 19.2546Z"/>
  <ellipse cx="19.6315" cy="16.3678" rx="1.34046" ry="1.34046"/>
  <path d="M24.0243 9.85062C24.5398 9.50906 24.6848 8.81013 24.2941 8.33085C22.7053 6.38156 20.5054 5.0064 18.0335 4.43998C15.1963 3.78983 12.2177 4.25492 9.71367 5.73906C7.20967 7.22321 5.37179 9.6129 4.5801 12.414C3.89037 14.8543 4.04067 17.4442 4.98792 19.7738C5.22082 20.3466 5.90358 20.5549 6.45064 20.2667V20.2667C6.9977 19.9785 7.20039 19.3031 6.98146 18.7248C6.29395 16.9089 6.20144 14.9102 6.73485 13.023C7.37031 10.7747 8.8455 8.85656 10.8554 7.66529C12.8652 6.47403 15.256 6.10072 17.5334 6.62257C19.445 7.06061 21.154 8.10126 22.4169 9.57608C22.8191 10.0457 23.5089 10.1922 24.0243 9.85062V9.85062Z"/>
  <path d="M9.83708 23.9835C9.48538 24.5103 9.62514 25.2283 10.1848 25.525C11.7039 26.3304 13.391 26.7825 15.1195 26.8405C17.2313 26.9114 19.3209 26.3912 21.1529 25.3385C22.985 24.2858 24.4868 22.7425 25.489 20.8824C26.3094 19.3599 26.7684 17.6747 26.8376 15.9566C26.8631 15.3237 26.3132 14.8414 25.6809 14.8799V14.8799C25.0486 14.9184 24.5749 15.4638 24.5332 16.0959C24.4481 17.3862 24.0872 18.648 23.4696 19.7942C22.6699 21.2783 21.4718 22.5096 20.0101 23.3495C18.5484 24.1893 16.8813 24.6044 15.1964 24.5478C13.8951 24.5042 12.6232 24.1806 11.4656 23.6043C10.8985 23.322 10.1888 23.4566 9.83708 23.9835V23.9835Z"/>
</svg>