<svg width="102" height="134" viewBox="0 0 102 134" fill="none" xmlns="http://www.w3.org/2000/svg">
<ellipse cx="50.92" cy="46.3733" rx="31.6114" ry="31.6092" fill="url(#paint0_linear_801_17158)"/>
<path fill-rule="evenodd" clip-rule="evenodd" d="M15.2454 57.607C15.7896 56.9345 16.8323 57.0364 17.2631 57.7866C17.5394 58.2679 17.4656 58.8718 17.0977 59.2872C14.9529 61.709 14.0278 63.5933 14.6445 64.6671C16.6258 68.1172 33.7721 61.894 52.9418 50.7671C53.6035 50.3831 54.2589 49.9982 54.9077 49.6129C55.1325 49.4793 55.262 49.232 55.262 48.9704C55.262 44.5406 58.8533 40.9496 63.2834 40.9496C65.6585 40.9496 68.231 41.0201 70.1472 39.6167C79.7024 32.6186 85.377 26.6593 84.0642 24.3732C83.4755 23.3481 81.5479 23.177 78.6262 23.7348C78.0998 23.8353 77.5615 23.6018 77.2946 23.1371C76.8754 22.407 77.3034 21.481 78.1365 21.3591C83.8756 20.5194 87.9465 21.2206 89.3735 23.7054C92.0459 28.359 84.6922 37.9595 71.8906 47.7215C71.5061 48.0146 71.3048 48.487 71.3048 48.9704C71.3048 53.4002 67.7135 56.9913 63.2834 56.9913C63.0609 56.9913 62.8405 56.9822 62.6227 56.9644C60.6486 56.8035 58.5468 56.7209 56.8338 57.7152C35.2654 70.2344 14.8646 75.3052 11.2673 69.0412C9.79099 66.4705 11.3743 62.3902 15.2454 57.607Z" fill="#D7DEED"/>
<ellipse cx="63.2832" cy="48.9704" rx="4.0107" ry="4.01042" fill="#70AF09"/>
<g opacity="0.32">
<path d="M34.7203 35.5629C32.7748 40.3663 33.3886 45.4317 31.0024 44.4654C28.6162 43.4991 28.2589 38.8218 30.2044 34.0184C32.1498 29.2149 35.6613 26.1043 38.0475 27.0706C40.4337 28.0369 36.6657 30.7594 34.7203 35.5629Z" fill="#E5E5E5"/>
<path d="M33.2224 49.2374C33.3962 50.8192 32.6637 52.1975 31.5864 52.3158C30.5091 52.4342 29.4948 51.2478 29.321 49.666C29.1472 48.0842 29.8796 46.7059 30.957 46.5876C32.0343 46.4692 33.0486 47.6556 33.2224 49.2374Z" fill="#E5E5E5"/>
</g>
<path d="M41.5863 70.4539C40.4878 69.8193 41.0143 68.7557 43.6824 67.8714C49.3084 66.6366 48.3591 69.133 56.455 68.1725C64.5509 67.212 68.8189 63.8747 70.9687 61.6794C72.6885 59.9231 74.2782 57.5464 74.2019 58.3849C73.836 60.1687 70.8813 64.8704 61.9895 69.4074C50.8748 75.0787 43.2707 71.427 41.5863 70.4539Z" fill="#080F1B" fill-opacity="0.11"/>
<path d="M77.3308 28.8724C78.3741 28.1811 78.6652 26.7695 77.9058 25.7747C73.0796 19.4524 66.1673 15.0043 58.3596 13.2508C49.8126 11.3313 40.8544 12.7895 33.3575 17.3207C25.8607 21.8518 20.4056 29.1052 18.1326 37.5645C16.0562 45.2921 16.7819 53.4796 20.137 60.6912C20.6649 61.8258 22.0499 62.2241 23.1469 61.6219C24.2439 61.0195 24.6362 59.6449 24.12 58.5048C21.3211 52.3232 20.7365 45.3384 22.5094 38.7404C24.479 31.4103 29.2059 25.1252 35.7019 21.1989C42.198 17.2726 49.9604 16.0091 57.3665 17.6724C64.0329 19.1695 69.9462 22.9339 74.1188 28.2852C74.8883 29.272 76.2877 29.5637 77.3308 28.8724Z" fill="#D7DEED"/>
<path d="M31.5578 71.4516C30.7931 72.4422 30.9723 73.8722 32.0118 74.5691C36.8719 77.8278 42.5039 79.7825 48.3645 80.2248C54.98 80.724 61.5969 79.2741 67.3974 76.0542C73.1979 72.8344 77.9278 67.9857 81.0027 62.1074C83.7267 56.8999 85.046 51.0865 84.8504 45.2386C84.8085 43.9878 83.6896 43.0795 82.4444 43.2046C81.1992 43.3298 80.3004 44.4412 80.3294 45.6923C80.4445 50.6575 79.3002 55.5844 76.9868 60.007C74.3224 65.1007 70.2239 69.3021 65.1977 72.0921C60.1715 74.8821 54.4379 76.1385 48.7055 75.7059C43.7283 75.3303 38.9413 73.6958 34.7878 70.9723C33.7412 70.2861 32.3226 70.4611 31.5578 71.4516Z" fill="#D7DEED"/>
<path d="M2.20149 134C1.42654 134 1.03906 133.793 1.03906 133.38V121.175C1.03906 120.904 1.09718 120.711 1.21343 120.594C1.34258 120.465 1.54278 120.401 1.81401 120.401H8.18798C8.39463 120.401 8.54317 120.478 8.63358 120.633C8.72399 120.788 8.76919 121.033 8.76919 121.369V121.97C8.76919 122.306 8.72399 122.551 8.63358 122.706C8.54317 122.861 8.39463 122.938 8.18798 122.938H4.02262V126.348H8.05236C8.25902 126.348 8.40755 126.425 8.49796 126.58C8.58837 126.735 8.63358 126.981 8.63358 127.317V127.917C8.63358 128.253 8.58837 128.498 8.49796 128.653C8.40755 128.808 8.25902 128.886 8.05236 128.886H4.02262V133.38C4.02262 133.793 3.63515 134 2.8602 134H2.20149Z" fill="#7FB02E"/>
<path d="M14.425 134C13.65 134 13.2625 133.793 13.2625 133.38V121.175C13.2625 120.904 13.3207 120.711 13.4369 120.594C13.5661 120.465 13.7663 120.401 14.0375 120.401H17.8154C21.0314 120.401 22.6394 121.615 22.6394 124.043C22.6394 124.766 22.4328 125.399 22.0195 125.941C21.6191 126.471 21.0702 126.864 20.3727 127.123V127.2C20.6181 127.291 20.87 127.51 21.1283 127.859C21.3866 128.195 21.5997 128.569 21.7676 128.983L23.4725 133.244C23.5371 133.412 23.5694 133.535 23.5694 133.613C23.5694 133.729 23.4725 133.826 23.2788 133.903C23.085 133.968 22.7944 134 22.407 134H21.6126C20.9798 134 20.6052 133.864 20.489 133.593L18.9584 129.816C18.7389 129.389 18.4999 129.092 18.2416 128.924C17.9962 128.744 17.5829 128.653 17.0017 128.653H16.2461V133.38C16.2461 133.793 15.8586 134 15.0837 134H14.425ZM18.0866 126.077C18.487 126.077 18.8357 125.915 19.1328 125.592C19.4299 125.269 19.5784 124.876 19.5784 124.411C19.5784 123.959 19.4299 123.603 19.1328 123.345C18.8486 123.074 18.4547 122.938 17.951 122.938H16.2461V126.077H18.0866Z" fill="#7FB02E"/>
<path d="M28.6327 133.961C28.3615 133.961 28.1613 133.903 28.0322 133.787C27.9159 133.658 27.8578 133.458 27.8578 133.186V121.175C27.8578 120.904 27.9159 120.711 28.0322 120.594C28.1613 120.465 28.3615 120.401 28.6327 120.401H35.4329C35.6396 120.401 35.7881 120.478 35.8785 120.633C35.9689 120.788 36.0141 121.033 36.0141 121.369V121.97C36.0141 122.306 35.9689 122.551 35.8785 122.706C35.7881 122.861 35.6396 122.938 35.4329 122.938H30.8414V125.747H34.9098C35.1165 125.747 35.265 125.825 35.3554 125.98C35.4459 126.135 35.4911 126.38 35.4911 126.716V127.317C35.4911 127.652 35.4459 127.898 35.3554 128.053C35.265 128.208 35.1165 128.285 34.9098 128.285H30.8414V131.423H35.4523C35.659 131.423 35.8075 131.501 35.8979 131.656C35.9883 131.811 36.0335 132.056 36.0335 132.392V132.993C36.0335 133.328 35.9883 133.574 35.8979 133.729C35.8075 133.884 35.659 133.961 35.4523 133.961H28.6327Z" fill="#7FB02E"/>
<path d="M41.8243 133.961C41.5531 133.961 41.3529 133.903 41.2237 133.787C41.1075 133.658 41.0494 133.458 41.0494 133.186V121.175C41.0494 120.904 41.1075 120.711 41.2237 120.594C41.3529 120.465 41.5531 120.401 41.8243 120.401H48.6245C48.8312 120.401 48.9797 120.478 49.0701 120.633C49.1605 120.788 49.2057 121.033 49.2057 121.369V121.97C49.2057 122.306 49.1605 122.551 49.0701 122.706C48.9797 122.861 48.8312 122.938 48.6245 122.938H44.0329V125.747H48.1014C48.3081 125.747 48.4566 125.825 48.547 125.98C48.6374 126.135 48.6826 126.38 48.6826 126.716V127.317C48.6826 127.652 48.6374 127.898 48.547 128.053C48.4566 128.208 48.3081 128.285 48.1014 128.285H44.0329V131.423H48.6439C48.8505 131.423 48.9991 131.501 49.0895 131.656C49.1799 131.811 49.2251 132.056 49.2251 132.392V132.993C49.2251 133.328 49.1799 133.574 49.0895 133.729C48.9991 133.884 48.8505 133.961 48.6439 133.961H41.8243Z" fill="#7FB02E"/>
<path d="M65.5016 134C64.8687 134 64.5071 133.864 64.4167 133.593L60.232 121.137C60.1803 120.956 60.1545 120.84 60.1545 120.788C60.1545 120.504 60.5484 120.362 61.3363 120.362H62.0143C62.6601 120.362 63.0412 120.549 63.1574 120.924L65.5597 128.614C65.8051 129.402 65.9472 129.99 65.986 130.377H66.0635C66.1022 129.99 66.2443 129.402 66.4897 128.614L68.9695 120.924C69.0987 120.549 69.4797 120.362 70.1126 120.362H70.6744C71.4494 120.362 71.8368 120.504 71.8368 120.788C71.8368 120.878 71.8175 120.995 71.7787 121.137L67.594 133.593C67.5036 133.864 67.1419 134 66.509 134H65.5016Z" fill="#7FB02E"/>
<path d="M77.0908 134C76.3158 134 75.9283 133.793 75.9283 133.38V121.175C75.9283 120.904 75.9865 120.711 76.1027 120.594C76.2319 120.465 76.4321 120.401 76.7033 120.401H80.7718C81.9859 120.401 83.0579 120.698 83.9878 121.292C84.9178 121.873 85.3827 122.99 85.3827 124.643C85.3827 125.78 85.1115 126.664 84.569 127.297C84.0266 127.917 83.4195 128.337 82.7479 128.556C82.0763 128.776 81.4821 128.886 80.9655 128.886H78.9119V133.38C78.9119 133.793 78.5244 134 77.7495 134H77.0908ZM80.6362 126.329C81.1011 126.329 81.4951 126.206 81.818 125.96C82.1538 125.715 82.3217 125.276 82.3217 124.643C82.3217 124.01 82.1538 123.571 81.818 123.326C81.4951 123.067 81.1011 122.938 80.6362 122.938H78.9119V126.329H80.6362Z" fill="#7FB02E"/>
<path d="M90.7553 134C89.9804 134 89.5929 133.793 89.5929 133.38V120.982C89.5929 120.568 89.9804 120.362 90.7553 120.362H91.5884C91.8984 120.362 92.1567 120.401 92.3633 120.478C92.57 120.543 92.7379 120.678 92.8671 120.885L97.2262 127.607C97.4845 127.982 97.7169 128.363 97.9236 128.75L98.0011 128.731C97.9753 128.434 97.9623 127.995 97.9623 127.413V120.982C97.9623 120.568 98.3498 120.362 99.1248 120.362H99.6866C100.462 120.362 100.849 120.568 100.849 120.982V133.38C100.849 133.793 100.462 134 99.6866 134H98.9504C98.6404 134 98.3821 133.968 98.1755 133.903C97.9688 133.826 97.8009 133.684 97.6718 133.477L93.2158 126.658C92.9575 126.283 92.725 125.902 92.5183 125.515L92.4408 125.534C92.4667 125.831 92.4796 126.27 92.4796 126.852V133.38C92.4796 133.793 92.0921 134 91.3172 134H90.7553Z" fill="#7FB02E"/>
<path d="M2.81361 113.571C1.35388 113.571 0.624023 113.182 0.624023 112.404V89.4145C0.624023 88.9036 0.733503 88.5387 0.952461 88.3198C1.19575 88.0765 1.57284 87.9549 2.08375 87.9549H9.74729C12.0342 87.9549 14.0535 88.5144 15.8051 89.6334C17.5568 90.7281 18.4326 92.8324 18.4326 95.9463C18.4326 98.0871 17.9217 99.7535 16.8999 100.945C15.8781 102.113 14.7347 102.904 13.4696 103.317C12.2045 103.731 11.0854 103.938 10.1122 103.938H6.24396V112.404C6.24396 113.182 5.51409 113.571 4.05437 113.571H2.81361ZM9.49184 99.121C10.3677 99.121 11.1097 98.8899 11.7179 98.4276C12.3505 97.9654 12.6667 97.1383 12.6667 95.9463C12.6667 94.7543 12.3505 93.9271 11.7179 93.4649C11.1097 92.9784 10.3677 92.7351 9.49184 92.7351H6.24396V99.121H9.49184Z" fill="#879EC1"/>
<path d="M26.5455 113.79C22.9935 113.79 21.2175 111.82 21.2175 107.879V87.1521C21.2175 86.3736 21.9474 85.9844 23.4071 85.9844H24.4289C25.8886 85.9844 26.6185 86.3736 26.6185 87.1521V107.952C26.6185 108.511 26.7158 108.913 26.9104 109.156C27.1294 109.399 27.47 109.521 27.9322 109.521C28.0539 109.521 28.212 109.496 28.4067 109.448C28.6256 109.399 28.7959 109.375 28.9176 109.375C29.1365 109.375 29.3311 109.557 29.5014 109.922C29.6717 110.287 29.8056 110.688 29.9029 111.126C30.0002 111.564 30.0488 111.856 30.0488 112.002C30.0488 113.194 28.8811 113.79 26.5455 113.79Z" fill="#879EC1"/>
<path d="M36.686 113.79C34.8127 113.79 33.4381 113.304 32.5623 112.331C31.7108 111.357 31.285 110.068 31.285 108.463C31.285 106.516 31.9906 104.899 33.4016 103.609C34.837 102.32 37.6227 101.675 41.7586 101.675V100.471C41.7586 99.7656 41.5274 99.2426 41.0652 98.902C40.6273 98.5614 39.9096 98.3911 38.9121 98.3911C38.0849 98.3911 37.3551 98.4763 36.7225 98.6466C36.1143 98.8169 35.5669 99.0115 35.0803 99.2304C34.5937 99.4494 34.314 99.5588 34.241 99.5588C33.9977 99.5588 33.7301 99.3764 33.4381 99.0115C33.1462 98.6466 32.8907 98.233 32.6718 97.7708C32.4528 97.2843 32.3433 96.9072 32.3433 96.6396C32.3433 96.226 32.6474 95.8246 33.2557 95.4354C33.8639 95.0462 34.7032 94.7299 35.7737 94.4867C36.8442 94.2434 38.0241 94.1218 39.3135 94.1218C42.0627 94.1218 44.0576 94.6691 45.2984 95.7638C46.5391 96.8342 47.1595 98.3182 47.1595 100.216V107.076C47.1595 108.195 47.1839 109.046 47.2325 109.63C47.3055 110.214 47.3907 110.859 47.488 111.564C47.561 111.88 47.5974 112.148 47.5974 112.367C47.5974 112.756 47.0987 113.048 46.1012 113.243C45.1281 113.437 44.2644 113.535 43.5102 113.535C43.0723 113.535 42.7682 113.364 42.5979 113.024C42.4276 112.659 42.2938 112.27 42.1965 111.856C42.1235 111.443 42.0748 111.163 42.0505 111.017C41.9045 111.284 41.6126 111.637 41.1747 112.075C40.7367 112.489 40.1285 112.878 39.35 113.243C38.5715 113.608 37.6835 113.79 36.686 113.79ZM38.4742 109.521C39.1554 109.521 39.8001 109.302 40.4083 108.864C41.0165 108.426 41.4666 107.879 41.7586 107.222V105.215C38.3525 105.215 36.6495 106.115 36.6495 107.915C36.6495 108.402 36.8077 108.791 37.1239 109.083C37.4402 109.375 37.8903 109.521 38.4742 109.521Z" fill="#879EC1"/>
<path d="M54.0904 113.571C52.6306 113.571 51.9008 113.182 51.9008 112.404V100.836C51.9008 99.7656 51.8643 98.9507 51.7913 98.3911C51.7426 97.8073 51.6697 97.1626 51.5723 96.4572C51.4994 96.1166 51.4629 95.8611 51.4629 95.6908C51.4629 95.3016 51.9494 95.0097 52.9226 94.8151C53.9201 94.6205 54.7959 94.5232 55.5501 94.5232C55.988 94.5232 56.2921 94.6934 56.4624 95.034C56.6327 95.3503 56.7544 95.703 56.8273 96.0922C56.9247 96.4815 56.9855 96.7491 57.0098 96.895C57.5937 96.1166 58.3722 95.4597 59.3454 94.9245C60.3185 94.3894 61.3525 94.1218 62.4473 94.1218C64.2719 94.1218 65.6222 94.6083 66.498 95.5814C67.3738 96.5301 67.8118 98.0141 67.8118 100.033V112.404C67.8118 113.182 67.0819 113.571 65.6222 113.571H64.6004C63.1406 113.571 62.4108 113.182 62.4108 112.404V100.836C62.4108 100.082 62.2405 99.5224 61.8999 99.1574C61.5593 98.7682 60.9997 98.5736 60.2212 98.5736C59.5643 98.5736 58.9804 98.7925 58.4695 99.2304C57.983 99.644 57.5937 100.131 57.3018 100.69V112.404C57.3018 113.182 56.5719 113.571 55.1122 113.571H54.0904Z" fill="#879EC1"/>
<path d="M81.0091 113.79C77.7977 113.79 75.4014 112.939 73.82 111.236C72.263 109.509 71.4844 107.125 71.4844 104.084C71.4844 100.654 72.263 98.1357 73.82 96.5301C75.4014 94.9245 77.5788 94.1218 80.3523 94.1218C83.0527 94.1218 85.0355 94.9975 86.3006 96.7491C87.59 98.5006 88.2348 100.763 88.2348 103.536C88.2348 103.828 87.9793 104.266 87.4684 104.85C86.9818 105.409 86.6169 105.689 86.3736 105.689H77.0679C77.1895 107.076 77.6031 108.061 78.3086 108.645C79.0142 109.229 79.9995 109.521 81.2646 109.521C81.9458 109.521 82.5662 109.448 83.1257 109.302C83.6853 109.132 84.2692 108.925 84.8774 108.681C85.2666 108.487 85.5343 108.39 85.6802 108.39C85.9235 108.39 86.1911 108.572 86.4831 108.937C86.7994 109.277 87.0548 109.679 87.2494 110.141C87.4684 110.579 87.5779 110.92 87.5779 111.163C87.5779 111.722 87.2008 112.209 86.4466 112.622C85.6924 113.012 84.7922 113.304 83.7461 113.498C82.7 113.693 81.7877 113.79 81.0091 113.79ZM82.9798 102.077C82.9798 100.958 82.7608 100.07 82.3229 99.4129C81.885 98.7317 81.2281 98.3911 80.3523 98.3911C78.5519 98.3911 77.4571 99.6197 77.0679 102.077H82.9798Z" fill="#879EC1"/>
<path d="M97.7617 113.79C94.2097 113.79 92.4337 111.82 92.4337 107.879V98.6831H91.8498C91.4606 98.6831 91.1808 98.5371 91.0105 98.2452C90.8402 97.9533 90.7551 97.491 90.7551 96.8585V96.2382C90.7551 95.6057 90.8402 95.1435 91.0105 94.8516C91.1808 94.5596 91.4606 94.4137 91.8498 94.4137H92.4337L92.9081 90.9471C93.0298 90.1686 93.6867 89.7794 94.8788 89.7794H96.0101C97.2265 89.7794 97.8347 90.1686 97.8347 90.9471V94.4137H99.6229C100.012 94.4137 100.292 94.5596 100.462 94.8516C100.633 95.1435 100.718 95.6057 100.718 96.2382V96.8585C100.718 97.491 100.633 97.9533 100.462 98.2452C100.292 98.5371 100.012 98.6831 99.6229 98.6831H97.8347V107.952C97.8347 108.511 97.932 108.913 98.1267 109.156C98.3456 109.399 98.6862 109.521 99.1485 109.521C99.2701 109.521 99.4282 109.496 99.6229 109.448C99.8418 109.399 100.012 109.375 100.134 109.375C100.353 109.375 100.547 109.557 100.718 109.922C100.888 110.287 101.022 110.688 101.119 111.126C101.216 111.564 101.265 111.856 101.265 112.002C101.265 113.194 100.097 113.79 97.7617 113.79Z" fill="#879EC1"/>
<defs>
<linearGradient id="paint0_linear_801_17158" x1="17.3965" y1="-7.68634" x2="65.2127" y2="73.784" gradientUnits="userSpaceOnUse">
<stop offset="0.394669" stop-color="#E87D1B"/>
<stop offset="0.72037" stop-color="#D64D12"/>
<stop offset="0.749987" stop-color="#70AF09"/>
</linearGradient>
</defs>
</svg>
