<svg width="26" height="26" viewBox="0 0 26 26" fill="none" xmlns="http://www.w3.org/2000/svg">
<g clip-path="url(#clip0_726_17524)">
<path d="M13 25.5C19.9052 25.5 25.5 19.9052 25.5 13C25.5 6.09479 19.9052 0.5 13 0.5C6.09479 0.5 0.5 6.09479 0.5 13C0.5 19.9052 6.09479 25.5 13 25.5ZM6.21979 12.7292L18.2719 8.08229C18.8312 7.88021 19.3198 8.21875 19.1385 9.06458L19.1396 9.06354L17.0875 18.7313C16.9354 19.4167 16.5281 19.5833 15.9583 19.2604L12.8333 16.9573L11.326 18.4094C11.1594 18.576 11.0187 18.7167 10.6958 18.7167L10.9177 15.5365L16.7094 10.3042C16.9615 10.0823 16.6531 9.95729 16.3208 10.1781L9.16354 14.6844L6.07812 13.7219C5.40833 13.5094 5.39375 13.0521 6.21979 12.7292Z" fill="#87AB49"/>
</g>
<defs>
<clipPath id="clip0_726_17524">
<rect width="25" height="25" fill="white" transform="translate(0.5 0.5)"/>
</clipPath>
</defs>
</svg>
